# xmcd
#
# Track frame offsets:
#	150
#	14882
#	28780
#	41132
#	66445
#	83802
#	95805
#	129107
#	152957
#
# Disc length: 2414 seconds
#
# Revision: 1
# Processed by: cddbd v1.4PL0 Copyright (c) Steve Scherf et al.
# Submitted via: audiograbber 1.81.02
#
DISCID=7c096c09
DTITLE=Shahbrack - Rocks The Blues
DYEAR=1900
DGENRE=Blues
TTITLE0=Natural Ball
TTITLE1=Hideaway
TTITLE2=Strange Brew
TTITLE3=Betty Blue
TTITLE4=Homesick
TTITLE5=T-Bone Boogie
TTITLE6=She's Gone
TTITLE7=The Wrong Door
TTITLE8=Late Night Blues
EXTD=
EXTT0=
EXTT1=
EXTT2=
EXTT3=
EXTT4=
EXTT5=
EXTT6=
EXTT7=
EXTT8=
PLAYORDER=
